<svg jsname="BUfzDd" xmlns="http://www.w3.org/2000/svg" viewBox="0 0 1440 810" preserveAspectRatio="xMinYMin slice" aria-hidden="true">
<path fill="#BBDEFB" d="M0 0 L480 0 L360 550 L0 250 L0 0 Z"/>
<path fill="#90CAF9" d="M0 250 L360 550 L288 900 L0 900 L0 250 Z"/>
<path fill="#64B5F6" d="M480 0 L1150 0 L700 700 L410 300 L480 0 Z"/>
<path fill="#42A5F5" d="M410 300 L900 900 L288 900 L410 300 Z"/>
<path fill="#2196F3" d="M1440 0 L1150 0 L550 900 L1440 900 L1440 0 Z"/>
<path fill="#1E88E5" d="M1150 0 L1440 0 L1440 600 L990 240 L1150 0 Z"/>
<path fill="#1976D2" d="M1440 600 L1440 900 L900 900 L1440 600 Z"/>
</svg>
